<svg width="48" height="48" viewBox="0 0 48 48" fill="none" xmlns="http://www.w3.org/2000/svg">
<path d="M48 24C48 37.2581 37.2581 48 24 48C10.7419 48 0 37.2581 0 24C0 10.7419 10.7419 0 24 0C37.2581 0 48 10.7419 48 24ZM34.1032 21.2032L27.0968 28.5097V10.8387C27.0968 9.55161 26.0613 8.51613 24.7742 8.51613H23.2258C21.9387 8.51613 20.9032 9.55161 20.9032 10.8387V28.5097L13.8968 21.2032C12.9968 20.2645 11.4968 20.2452 10.5774 21.1645L9.52258 22.229C8.6129 23.1387 8.6129 24.6097 9.52258 25.5097L22.3548 38.3516C23.2645 39.2613 24.7355 39.2613 25.6355 38.3516L38.4774 25.5097C39.3871 24.6 39.3871 23.129 38.4774 22.229L37.4226 21.1645C36.5032 20.2452 35.0032 20.2645 34.1032 21.2032V21.2032Z" fill="white"/>
</svg>
