<svg width="913" height="695" viewBox="0 0 913 695" fill="none" xmlns="http://www.w3.org/2000/svg">
<g id="HeroShape">
<path id="circle2" d="M913 347.5C913 539.419 757.419 695 565.5 695C373.581 695 0 539.419 0 347.5C0 155.581 373.581 0 565.5 0C757.419 0 913 155.581 913 347.5Z" fill="black" fill-opacity="0.1"/>
<path id="circle1" d="M3.03794e-05 347.5C4.71575e-05 155.581 155.581 -6.62157e-05 347.5 -4.94376e-05C539.419 -3.26595e-05 913 155.581 913 347.5C913 539.419 539.419 695 347.5 695C155.581 695 1.36013e-05 539.419 3.03794e-05 347.5Z" fill="black" fill-opacity="0.1"/>
</g>
</svg>
